<svg version="1.1" id="Layer_1" xmlns="http://www.w3.org/2000/svg" xmlns:xlink="http://www.w3.org/1999/xlink" x="0px" y="0px"
	 width="100%" viewBox="0 0 788 317" enable-background="new 0 0 788 317" xml:space="preserve">
<path fill="#FFFFFF" opacity="1.000000" stroke="none" 
	d="
M509.000000,318.000000 
	C339.371613,318.000000 170.243195,318.000000 1.057398,318.000000 
	C1.057398,212.395523 1.057398,106.791016 1.057398,1.093251 
	C263.545044,1.093251 526.090149,1.093251 788.817627,1.093251 
	C788.817627,106.666412 788.817627,212.333176 788.817627,318.000000 
	C695.791077,318.000000 602.645508,318.000000 509.000000,318.000000 
M441.792236,129.917450 
	C441.860657,151.944839 441.929047,173.972244 441.923248,196.592834 
	C442.275848,196.693878 442.628479,196.794922 443.899078,197.067993 
	C447.972473,197.067993 452.045898,197.067993 456.317261,197.067993 
	C456.317261,188.787552 456.436310,181.145126 456.258484,173.509628 
	C456.187592,170.465073 457.181976,169.310272 460.239777,169.492767 
	C463.554901,169.690628 466.891876,169.489136 470.217773,169.548187 
	C480.127502,169.724167 483.120544,172.622330 484.074615,182.513809 
	C484.542938,187.369080 485.324768,192.194122 485.948425,196.909790 
	C491.381470,196.909790 496.006653,196.909790 500.294342,196.909790 
	C499.797913,193.013016 499.303650,189.257111 498.843719,185.497009 
	C497.847717,177.354477 498.409973,168.495071 488.133514,164.378479 
	C489.438110,163.543991 490.084106,163.126083 490.734680,162.715408 
	C497.999725,158.129532 500.952362,150.140442 498.588104,141.462540 
	C496.516479,133.858780 489.504700,128.087051 481.397034,127.983772 
	C468.596588,127.820709 455.791382,128.028915 442.386841,128.002014 
	C442.257690,128.334717 442.128540,128.667419 441.792236,129.917450 
M228.200592,128.403824 
	C228.200592,151.152100 228.200592,173.900360 228.200592,197.071320 
	C239.935043,197.071320 251.381638,197.315231 262.808197,196.943405 
	C266.995270,196.807175 271.416229,195.850586 275.244324,194.164413 
	C287.659698,188.695801 290.043152,171.056900 279.714386,162.656296 
	C278.004669,161.265747 275.952759,160.295944 274.785980,159.578644 
	C277.321075,156.072723 280.628204,153.131882 281.862885,149.488693 
	C285.720520,138.106049 278.056519,128.423935 264.914154,128.025818 
	C253.282898,127.673462 241.629929,128.038574 229.498077,127.940758 
	C229.340973,128.005661 229.183884,128.070557 228.200592,128.403824 
M191.503937,264.872284 
	C191.929245,261.085175 192.666580,257.302582 192.721298,253.510117 
	C192.884766,242.179169 192.537369,230.837631 192.850784,219.513000 
	C193.155045,208.519638 192.020920,197.561981 192.673874,186.551453 
	C193.195877,177.749100 192.954605,168.885223 192.656631,160.061996 
	C192.582275,157.859955 191.501190,155.221619 189.994339,153.619446 
	C183.375214,146.581589 176.563049,139.709457 169.536331,133.078781 
	C166.842697,130.536987 165.957550,127.914474 166.074387,124.350662 
	C166.307205,117.249367 166.143341,110.135063 166.143341,103.026138 
	C165.553253,102.814552 164.963165,102.602974 164.373093,102.391388 
	C163.630768,103.671059 162.291336,104.930382 162.246933,106.233826 
	C162.025772,112.726303 162.366333,119.242104 162.022842,125.723915 
	C161.905243,127.942909 160.899902,130.580872 159.398026,132.180313 
	C152.670090,139.345352 145.486221,146.082901 138.776611,153.264099 
	C137.180511,154.972382 136.000290,157.780975 135.955078,160.109207 
	C135.693008,173.604095 136.007416,187.109772 135.776901,200.605820 
	C135.551422,213.806290 136.537003,226.995148 135.870087,240.198395 
	C135.601379,245.518143 135.803375,250.862930 135.830658,256.196106 
	C135.904999,270.734985 145.254013,282.861328 158.644714,284.917694 
	C174.125549,287.295044 186.808533,279.218658 191.503937,264.872284 
M378.983643,173.333237 
	C379.409515,181.736588 381.818451,189.301147 389.951294,193.162521 
	C399.327057,197.614014 408.168152,196.402695 415.700714,188.187805 
	C416.263641,199.697647 414.143707,205.224640 408.821533,206.849106 
	C402.518219,208.773071 397.276642,206.524216 393.444672,200.294373 
	C389.277069,200.294373 385.146637,200.294373 380.911530,200.294373 
	C380.708130,205.735489 383.427582,209.681686 387.689758,211.726334 
	C394.325684,214.909714 401.687744,216.211212 408.991089,214.837662 
	C422.246704,212.344650 428.181702,209.122971 428.556641,192.779190 
	C428.694031,186.790863 428.582275,180.796799 428.582764,174.805359 
	C428.583466,165.870865 428.582947,156.936371 428.582947,148.110199 
	C424.084412,148.110199 420.118530,148.110199 416.183441,148.110199 
	C415.959717,149.830261 415.762634,151.345505 415.509552,153.291306 
	C406.721893,141.578033 386.520081,142.989746 380.576538,160.155472 
	C379.256805,163.967133 379.456635,168.304916 378.983643,173.333237 
M653.496887,175.097168 
	C658.604248,175.097168 663.711670,175.097168 668.791626,175.097168 
	C669.067749,157.729813 660.450073,146.544250 646.772156,145.871902 
	C631.082397,145.100677 620.281433,154.297653 618.979309,169.537262 
	C617.716858,184.313934 626.879333,196.682068 640.097229,198.043564 
	C654.427002,199.519577 665.279602,193.053543 666.822388,182.120636 
	C658.998230,181.444824 658.998230,181.444839 652.630493,185.929855 
	C648.439514,188.881714 641.655579,189.128571 637.503296,186.384506 
	C633.519287,183.751663 632.310608,179.930649 632.534607,175.097214 
	C639.523254,175.097214 646.010986,175.097214 653.496887,175.097168 
M328.459564,193.108887 
	C346.223999,205.447983 367.784912,196.566589 370.804688,175.666046 
	C372.683838,162.659973 365.163055,149.904922 353.816223,146.854019 
	C339.274323,142.944046 326.036133,148.437851 321.161377,160.602615 
	C317.017822,170.942719 318.942352,185.957230 328.459564,193.108887 
M509.878754,178.532944 
	C512.930786,191.591171 521.076782,197.899094 535.322205,198.235245 
	C547.259766,198.516953 556.711975,191.879074 559.821899,181.030121 
	C563.461609,168.333054 559.260010,155.038528 549.250305,149.360992 
	C539.507202,143.834671 529.208069,143.908112 519.920044,149.968475 
	C510.046844,156.410629 507.947968,166.530624 509.878754,178.532944 
M599.800537,192.432541 
	C604.821289,177.385162 609.842041,162.337784 614.995239,146.893417 
	C612.902039,146.893417 611.249084,146.894424 609.596069,146.893250 
	C601.677551,146.887589 601.657227,146.881073 599.314270,154.434906 
	C596.588074,163.224518 593.902039,172.026581 590.802185,182.112900 
	C587.600220,171.808624 584.543762,162.965652 582.177307,153.941742 
	C580.979431,149.373947 579.234741,147.026184 574.191528,147.846451 
	C571.581482,148.270996 568.845459,147.921112 566.177124,147.921112 
	C570.488342,160.725784 574.823853,173.622864 579.173584,186.515182 
	C582.814697,197.307419 582.822510,197.152985 594.431580,197.185028 
	C597.644348,197.193893 599.005676,196.041718 599.800537,192.432541 
M677.250671,177.499420 
	C677.250671,183.932358 677.250671,190.365280 677.250671,196.884766 
	C682.073792,196.884766 686.330383,196.884766 690.392944,196.884766 
	C690.696594,196.554245 690.906860,196.432343 690.907593,196.309219 
	C690.953308,188.329865 690.881409,180.348434 691.038086,172.371475 
	C691.229980,162.598526 696.415405,157.808685 706.181946,158.113846 
	C707.292664,158.148560 708.405334,158.118546 709.455872,158.118546 
	C709.455872,153.857513 709.455872,149.980133 709.455872,145.067856 
	C705.438782,146.101654 701.707703,146.433167 698.634705,148.030579 
	C695.597839,149.609222 693.225830,152.466934 690.104797,155.157913 
	C690.104797,152.613892 690.104797,150.421844 690.104797,147.902634 
	C685.573364,147.902634 681.512268,147.902634 677.249817,147.902634 
	C677.249817,157.226242 677.249817,166.862961 677.250671,177.499420 
M295.930298,154.499985 
	C295.930298,168.582703 295.930298,182.665421 295.930298,196.731537 
	C300.645630,196.731537 304.862976,196.731537 308.952026,196.731537 
	C308.952026,173.660583 308.952026,150.941666 308.952026,128.234222 
	C304.478729,128.234222 300.270630,128.234222 295.929779,128.234222 
	C295.929779,136.885910 295.929779,145.192932 295.930298,154.499985 
M68.627640,88.568436 
	C67.628273,88.568665 66.568512,88.353157 65.641716,88.612610 
	C63.503628,89.211182 61.430073,90.040260 59.330341,90.775833 
	C61.511707,91.453850 63.690712,92.713684 65.874786,92.722534 
	C98.187057,92.853363 130.500000,92.818466 162.812775,92.821121 
	C163.811996,92.821205 164.934113,93.087051 165.779465,92.721504 
	C166.845215,92.260651 167.685013,91.277351 168.622299,90.519447 
	C167.592529,89.870079 166.635452,88.979202 165.512009,88.640999 
	C164.443527,88.319351 163.201172,88.577049 162.035278,88.576958 
	C131.221512,88.574425 100.407753,88.571495 68.627640,88.568436 
M87.500000,103.982384 
	C85.169777,103.982384 82.839554,103.982338 80.509331,103.982399 
	C74.683731,103.982559 68.852112,103.842567 63.037224,104.092194 
	C61.756195,104.147179 60.534496,105.584274 59.285477,106.384926 
	C60.557575,107.149033 61.788033,108.000755 63.122002,108.634674 
	C63.665333,108.892860 64.433342,108.678749 65.099121,108.678665 
	C90.898201,108.675400 116.697289,108.673401 142.496368,108.664185 
	C143.658157,108.663765 144.927673,108.875198 145.949051,108.478401 
	C146.835464,108.134041 148.069336,107.010994 148.009537,106.332596 
	C147.936676,105.506218 146.797668,104.457008 145.887619,104.105644 
	C144.870316,103.712883 143.592728,103.983978 142.428406,103.983833 
	C124.452271,103.981659 106.476135,103.982353 87.500000,103.982384 
M124.499985,61.112164 
	C135.984055,61.113625 147.468124,61.115494 158.952194,61.116207 
	C161.282211,61.116352 163.630936,61.280266 165.932709,61.024200 
	C166.808868,60.926727 167.577209,59.860165 168.394699,59.235271 
	C167.570160,58.593380 166.824295,57.768219 165.895386,57.369461 
	C165.193039,57.067966 164.256882,57.311882 163.424789,57.311794 
	C130.470551,57.308434 97.516289,57.292755 64.562096,57.333313 
	C62.693623,57.335609 60.825718,57.798885 58.957546,58.047607 
	C58.889019,58.662529 58.820492,59.277447 58.751965,59.892365 
	C60.528786,60.298481 62.304131,61.050156 64.082657,61.057755 
	C83.888153,61.142342 103.694130,61.111916 124.499985,61.112164 
M74.509201,73.030411 
	C70.858765,73.030106 67.190285,72.820343 63.566769,73.132507 
	C62.116032,73.257500 60.764309,74.531815 59.367516,75.282974 
	C60.737171,75.892258 62.101719,77.017273 63.477268,77.030884 
	C76.916199,77.163857 90.356972,77.119148 103.797173,77.096420 
	C104.852661,77.094635 105.907784,76.878059 106.963081,76.761307 
	C107.139137,76.209732 107.315186,75.658165 107.491241,75.106590 
	C105.955727,74.414246 104.431969,73.154976 102.882751,73.122833 
	C93.760597,72.933578 84.632515,73.030136 74.509201,73.030411 
M143.502533,73.027031 
	C138.024658,73.027031 132.546799,73.027031 127.146797,73.027031 
	C125.708107,76.401039 127.138954,77.140205 129.916336,77.127861 
	C141.572006,77.076042 153.228989,77.174080 164.882599,77.010590 
	C166.105286,76.993439 167.308884,75.613380 168.521332,74.865646 
	C167.341675,74.252708 166.174515,73.139328 164.980316,73.109535 
	C158.157516,72.939308 151.328293,73.026962 143.502533,73.027031 
M116.585251,73.148529 
	C113.630104,74.075668 109.142548,70.992638 107.116493,77.035049 
	C111.198502,77.035049 114.500053,77.238548 117.756393,76.943321 
	C119.232635,76.809486 120.619171,75.686195 122.046402,75.011757 
	C120.585617,74.390831 119.124832,73.769905 116.585251,73.148529 
z"/>
<path fill="#222222" opacity="1.000000" stroke="none" 
	d="
M191.349213,265.241730 
	C186.808533,279.218658 174.125549,287.295044 158.644714,284.917694 
	C145.254013,282.861328 135.904999,270.734985 135.830658,256.196106 
	C135.803375,250.862930 135.601379,245.518143 135.870087,240.198395 
	C136.537003,226.995148 135.551422,213.806290 135.776901,200.605820 
	C136.007416,187.109772 135.693008,173.604095 135.955078,160.109207 
	C136.000290,157.780975 137.180511,154.972382 138.776611,153.264099 
	C145.486221,146.082901 152.670090,139.345352 159.398026,132.180313 
	C160.899902,130.580872 161.905243,127.942909 162.022842,125.723915 
	C162.366333,119.242104 162.025772,112.726303 162.246933,106.233826 
	C162.291336,104.930382 163.630768,103.671059 164.373093,102.391388 
	C164.963165,102.602974 165.553253,102.814552 166.143341,103.026138 
	C166.143341,110.135063 166.307205,117.249367 166.074387,124.350662 
	C165.957550,127.914474 166.842697,130.536987 169.536331,133.078781 
	C176.563049,139.709457 183.375214,146.581589 189.994339,153.619446 
	C191.501190,155.221619 192.582275,157.859955 192.656631,160.061996 
	C192.954605,168.885223 193.195877,177.749100 192.673874,186.551453 
	C192.020920,197.561981 193.155045,208.519638 192.850784,219.513000 
	C192.537369,230.837631 192.884766,242.179169 192.721298,253.510117 
	C192.666580,257.302582 191.929245,261.085175 191.349213,265.241730 
M142.594803,179.369141 
	C141.650665,181.521881 139.950699,183.653793 139.890747,185.830887 
	C139.602249,196.306656 139.741058,206.794662 139.777451,217.278168 
	C139.780991,218.296051 140.122421,219.312729 140.404236,220.865753 
	C147.188950,214.531204 153.593155,208.789551 159.660233,202.711395 
	C161.082565,201.286469 162.009857,198.739120 162.061020,196.680710 
	C162.304916,186.869232 162.168076,177.048279 162.166794,167.230698 
	C162.166534,165.204132 162.166763,163.177551 162.166763,161.150986 
	C161.734344,161.006729 161.301941,160.862488 160.869522,160.718246 
	C154.958801,166.761200 149.048080,172.804169 142.594803,179.369141 
M166.131165,242.560043 
	C166.131165,255.321457 166.131165,268.082886 166.131165,280.839539 
	C176.900879,280.875854 186.675186,271.513519 188.149673,260.584686 
	C188.755630,256.093384 187.968262,252.732437 184.420471,249.594864 
	C179.205505,244.982849 174.483917,239.814682 169.513535,234.922699 
	C168.683365,234.105606 167.657547,233.487320 166.132050,232.329178 
	C166.132050,236.007095 166.132050,238.794891 166.131165,242.560043 
M174.910995,168.585312 
	C172.264359,166.003677 169.617706,163.422043 166.120972,160.011215 
	C166.120972,170.470062 166.085052,179.566467 166.169708,188.661728 
	C166.179504,189.713394 166.575623,191.026260 167.272583,191.765533 
	C173.825638,198.716507 180.483154,205.569000 187.110519,212.449921 
	C187.584045,212.125793 188.057587,211.801682 188.531113,211.477554 
	C187.373489,205.743103 191.349335,199.039124 184.577942,194.486176 
	C190.386520,187.687012 190.198395,183.845367 183.886551,177.554321 
	C181.058151,174.735214 178.236725,171.909088 174.910995,168.585312 
M188.455612,219.967499 
	C187.630051,218.436615 187.109848,216.595688 185.925430,215.429169 
	C181.109573,210.686157 175.996536,206.243912 171.205841,201.476959 
	C169.869736,200.147461 169.264282,198.083710 168.323654,196.356781 
	C167.593887,196.914566 166.864105,197.472351 166.134338,198.030136 
	C166.134338,206.748459 166.101776,215.467087 166.184647,224.184631 
	C166.192947,225.058426 166.699707,226.117325 167.316238,226.766312 
	C173.879929,233.675720 180.512558,240.519623 187.126236,247.381531 
	C187.565994,247.107910 188.005753,246.834290 188.445511,246.560669 
	C188.445511,237.999847 188.445511,229.439011 188.455612,219.967499 
M144.903412,222.503937 
	C143.070572,223.937698 141.237732,225.371475 139.371231,226.831573 
	C141.082733,229.008469 142.074371,230.269760 142.977966,231.419037 
	C136.973404,238.867126 141.061966,247.109604 140.375854,255.185394 
	C147.931793,248.635590 154.732117,241.677704 161.485809,234.674835 
	C161.895370,234.250122 162.115631,233.468994 162.118607,232.852249 
	C162.159241,224.447327 162.145950,216.042145 162.145950,206.362289 
	C155.952682,212.141968 150.680420,217.062164 144.903412,222.503937 
M154.196884,247.683792 
	C150.325165,251.564590 146.372070,255.369537 142.636337,259.377136 
	C141.646072,260.439453 140.645447,262.208496 140.805298,263.511230 
	C141.906647,272.486694 152.497604,281.120148 161.694733,280.804016 
	C161.694733,267.563629 161.694733,254.327164 161.694733,241.090683 
	C161.321182,240.884293 160.947632,240.677887 160.574081,240.471497 
	C158.615570,242.708633 156.657074,244.945770 154.196884,247.683792 
M145.962952,151.489853 
	C136.551300,157.576660 140.492767,166.671738 140.519333,175.101913 
	C147.813889,168.753098 154.426880,162.056137 160.968414,155.290070 
	C161.592941,154.644089 162.086685,153.572876 162.104523,152.688232 
	C162.209900,147.466949 162.156433,142.242432 162.156433,135.436447 
	C156.201935,141.338684 151.335052,146.162842 145.962952,151.489853 
M170.227463,158.175232 
	C176.021652,163.887833 181.815842,169.600433 188.461594,176.152603 
	C188.461594,171.229065 188.552170,167.752609 188.430786,164.283585 
	C188.345337,161.841919 188.891937,158.582016 187.570969,157.114471 
	C181.094330,149.919128 174.086548,143.201920 167.266449,136.315765 
	C166.094696,140.956970 166.344391,145.045624 166.020828,149.088394 
	C165.727798,152.749466 166.712570,155.558105 170.227463,158.175232 
z"/>
<path fill="#151515" opacity="1.000000" stroke="none" 
	d="
M229.986542,128.086929 
	C241.629929,128.038574 253.282898,127.673462 264.914154,128.025818 
	C278.056519,128.423935 285.720520,138.106049 281.862885,149.488693 
	C280.628204,153.131882 277.321075,156.072723 274.785980,159.578644 
	C275.952759,160.295944 278.004669,161.265747 279.714386,162.656296 
	C290.043152,171.056900 287.659698,188.695801 275.244324,194.164413 
	C271.416229,195.850586 266.995270,196.807175 262.808197,196.943405 
	C251.381638,197.315231 239.935043,197.071320 228.200592,197.071320 
	C228.200592,173.900360 228.200592,151.152100 228.709915,128.417786 
	C229.475006,128.316818 229.730774,128.201874 229.986542,128.086929 
M249.584412,165.929596 
	C247.490219,165.929596 245.396027,165.929596 243.203217,165.929596 
	C243.203217,172.718140 243.203217,178.787292 243.203217,185.304413 
	C249.588608,185.304413 255.712402,185.441315 261.827209,185.265335 
	C267.773163,185.094223 271.037964,181.847412 271.175507,176.422821 
	C271.322083,170.644531 268.201050,166.735718 262.534180,166.198044 
	C258.571045,165.822037 254.555435,165.998779 249.584412,165.929596 
M242.920273,143.687790 
	C242.920273,147.633911 242.920273,151.580032 242.920273,155.799332 
	C249.422226,155.799332 255.388123,156.132797 261.296234,155.691925 
	C265.875153,155.350235 268.321594,152.295792 268.315247,147.548386 
	C268.308777,142.705643 265.667389,140.027908 261.081268,139.635483 
	C255.954361,139.196777 250.775482,139.094788 245.637466,139.300888 
	C244.687958,139.339005 243.825119,141.538254 242.920273,143.687790 
z"/>
<path fill="#151515" opacity="1.000000" stroke="none" 
	d="
M442.988190,128.079971 
	C455.791382,128.028915 468.596588,127.820709 481.397034,127.983772 
	C489.504700,128.087051 496.516479,133.858780 498.588104,141.462540 
	C500.952362,150.140442 497.999725,158.129532 490.734680,162.715408 
	C490.084106,163.126083 489.438110,163.543991 488.133514,164.378479 
	C498.409973,168.495071 497.847717,177.354477 498.843719,185.497009 
	C499.303650,189.257111 499.797913,193.013016 500.294342,196.909790 
	C496.006653,196.909790 491.381470,196.909790 485.948425,196.909790 
	C485.324768,192.194122 484.542938,187.369080 484.074615,182.513809 
	C483.120544,172.622330 480.127502,169.724167 470.217773,169.548187 
	C466.891876,169.489136 463.554901,169.690628 460.239777,169.492767 
	C457.181976,169.310272 456.187592,170.465073 456.258484,173.509628 
	C456.436310,181.145126 456.317261,188.787552 456.317261,197.067993 
	C452.045898,197.067993 447.972473,197.067993 443.334045,196.776794 
	C442.564117,196.240646 442.306946,196.078644 441.997467,195.999634 
	C441.929047,173.972244 441.860657,151.944839 442.110352,129.364532 
	C442.705475,128.636932 442.892059,128.393051 442.988190,128.079971 
M464.591797,139.128586 
	C461.990173,139.128586 459.388519,139.128586 456.677734,139.128586 
	C456.677734,146.180161 456.677734,152.549088 456.677734,158.929443 
	C463.679657,158.929443 470.324432,159.268051 476.915710,158.819916 
	C481.983978,158.475311 484.092438,155.166092 484.111542,149.285599 
	C484.130890,143.325638 482.106842,140.340256 476.987640,139.672134 
	C473.215790,139.179871 469.365631,139.288086 464.591797,139.128586 
z"/>
<path fill="#171717" opacity="1.000000" stroke="none" 
	d="
M378.970215,172.866852 
	C379.456635,168.304916 379.256805,163.967133 380.576538,160.155472 
	C386.520081,142.989746 406.721893,141.578033 415.509552,153.291306 
	C415.762634,151.345505 415.959717,149.830261 416.183441,148.110199 
	C420.118530,148.110199 424.084412,148.110199 428.582947,148.110199 
	C428.582947,156.936371 428.583466,165.870865 428.582764,174.805359 
	C428.582275,180.796799 428.694031,186.790863 428.556641,192.779190 
	C428.181702,209.122971 422.246704,212.344650 408.991089,214.837662 
	C401.687744,216.211212 394.325684,214.909714 387.689758,211.726334 
	C383.427582,209.681686 380.708130,205.735489 380.911530,200.294373 
	C385.146637,200.294373 389.277069,200.294373 393.444672,200.294373 
	C397.276642,206.524216 402.518219,208.773071 408.821533,206.849106 
	C414.143707,205.224640 416.263641,199.697647 415.700714,188.187805 
	C408.168152,196.402695 399.327057,197.614014 389.951294,193.162521 
	C381.818451,189.301147 379.409515,181.736588 378.970215,172.866852 
M415.905609,171.395432 
	C415.101440,167.883987 414.793854,164.153625 413.366760,160.916824 
	C411.606750,156.925003 407.737488,155.458725 403.463531,155.497086 
	C399.247009,155.534912 396.265411,157.630783 394.367859,161.368927 
	C389.652771,170.657730 392.803772,186.530441 404.958649,185.377808 
	C411.120026,184.793533 414.692383,180.874084 415.905609,171.395432 
z"/>
<path fill="#151515" opacity="1.000000" stroke="none" 
	d="
M652.997803,175.097198 
	C646.010986,175.097214 639.523254,175.097214 632.534607,175.097214 
	C632.310608,179.930649 633.519287,183.751663 637.503296,186.384506 
	C641.655579,189.128571 648.439514,188.881714 652.630493,185.929855 
	C658.998230,181.444839 658.998230,181.444824 666.822388,182.120636 
	C665.279602,193.053543 654.427002,199.519577 640.097229,198.043564 
	C626.879333,196.682068 617.716858,184.313934 618.979309,169.537262 
	C620.281433,154.297653 631.082397,145.100677 646.772156,145.871902 
	C660.450073,146.544250 669.067749,157.729813 668.791626,175.097168 
	C663.711670,175.097168 658.604248,175.097168 652.997803,175.097198 
M643.524536,166.990128 
	C647.292542,166.990128 651.060547,166.990128 654.851990,166.990128 
	C654.378357,159.264755 650.762573,155.584030 644.114197,155.446854 
	C638.731323,155.335800 632.114014,159.448166 632.812012,166.991470 
	C636.016235,166.991470 639.286072,166.991470 643.524536,166.990128 
z"/>
<path fill="#151515" opacity="1.000000" stroke="none" 
	d="
M328.174072,192.887161 
	C318.942352,185.957230 317.017822,170.942719 321.161377,160.602615 
	C326.036133,148.437851 339.274323,142.944046 353.816223,146.854019 
	C365.163055,149.904922 372.683838,162.659973 370.804688,175.666046 
	C367.784912,196.566589 346.223999,205.447983 328.174072,192.887161 
M346.152618,155.532867 
	C338.330170,155.835052 334.301056,158.916702 333.146179,166.429947 
	C332.551758,170.297318 332.634003,174.411453 333.233704,178.286697 
	C334.172394,184.352280 338.566711,188.076874 343.936432,188.246872 
	C350.717010,188.461533 355.412415,185.394943 356.623444,178.816635 
	C357.416199,174.510452 357.332367,169.874268 356.709747,165.519058 
	C355.941925,160.147934 352.534821,156.597977 346.152618,155.532867 
z"/>
<path fill="#151515" opacity="1.000000" stroke="none" 
	d="
M509.821655,178.108795 
	C507.947968,166.530624 510.046844,156.410629 519.920044,149.968475 
	C529.208069,143.908112 539.507202,143.834671 549.250305,149.360992 
	C559.260010,155.038528 563.461609,168.333054 559.821899,181.030121 
	C556.711975,191.879074 547.259766,198.516953 535.322205,198.235245 
	C521.076782,197.899094 512.930786,191.591171 509.821655,178.108795 
M523.090332,177.802963 
	C525.363892,185.546875 528.935059,188.557449 535.479370,188.247177 
	C542.181824,187.929413 546.413452,184.117828 547.238281,176.454071 
	C547.688599,172.269943 547.266541,167.810104 546.289795,163.699951 
	C545.055054,158.504333 540.352234,155.480896 535.121033,155.435867 
	C529.878479,155.390747 525.251465,158.336838 524.007568,163.665543 
	C523.009338,167.941742 523.250183,172.507202 523.090332,177.802963 
z"/>
<path fill="#151515" opacity="1.000000" stroke="none" 
	d="
M599.621521,192.795761 
	C599.005676,196.041718 597.644348,197.193893 594.431580,197.185028 
	C582.822510,197.152985 582.814697,197.307419 579.173584,186.515182 
	C574.823853,173.622864 570.488342,160.725784 566.177124,147.921112 
	C568.845459,147.921112 571.581482,148.270996 574.191528,147.846451 
	C579.234741,147.026184 580.979431,149.373947 582.177307,153.941742 
	C584.543762,162.965652 587.600220,171.808624 590.802185,182.112900 
	C593.902039,172.026581 596.588074,163.224518 599.314270,154.434906 
	C601.657227,146.881073 601.677551,146.887589 609.596069,146.893250 
	C611.249084,146.894424 612.902039,146.893417 614.995239,146.893417 
	C609.842041,162.337784 604.821289,177.385162 599.621521,192.795761 
z"/>
<path fill="#171717" opacity="1.000000" stroke="none" 
	d="
M677.250244,176.999542 
	C677.249817,166.862961 677.249817,157.226242 677.249817,147.902634 
	C681.512268,147.902634 685.573364,147.902634 690.104797,147.902634 
	C690.104797,150.421844 690.104797,152.613892 690.104797,155.157913 
	C693.225830,152.466934 695.597839,149.609222 698.634705,148.030579 
	C701.707703,146.433167 705.438782,146.101654 709.455872,145.067856 
	C709.455872,149.980133 709.455872,153.857513 709.455872,158.118546 
	C708.405334,158.118546 707.292664,158.148560 706.181946,158.113846 
	C696.415405,157.808685 691.229980,162.598526 691.038086,172.371475 
	C690.881409,180.348434 690.953308,188.329865 690.907593,196.309219 
	C690.906860,196.432343 690.696594,196.554245 690.392944,196.884766 
	C686.330383,196.884766 682.073792,196.884766 677.250671,196.884766 
	C677.250671,190.365280 677.250671,183.932358 677.250244,176.999542 
z"/>
<path fill="#131313" opacity="1.000000" stroke="none" 
	d="
M295.930054,153.999969 
	C295.929779,145.192932 295.929779,136.885910 295.929779,128.234222 
	C300.270630,128.234222 304.478729,128.234222 308.952026,128.234222 
	C308.952026,150.941666 308.952026,173.660583 308.952026,196.731537 
	C304.862976,196.731537 300.645630,196.731537 295.930298,196.731537 
	C295.930298,182.665421 295.930298,168.582703 295.930054,153.999969 
z"/>
<path fill="#272727" opacity="1.000000" stroke="none" 
	d="
M69.110809,88.568535 
	C100.407753,88.571495 131.221512,88.574425 162.035278,88.576958 
	C163.201172,88.577049 164.443527,88.319351 165.512009,88.640999 
	C166.635452,88.979202 167.592529,89.870079 168.622299,90.519447 
	C167.685013,91.277351 166.845215,92.260651 165.779465,92.721504 
	C164.934113,93.087051 163.811996,92.821205 162.812775,92.821121 
	C130.500000,92.818466 98.187057,92.853363 65.874786,92.722534 
	C63.690712,92.713684 61.511707,91.453850 59.330341,90.775833 
	C61.430073,90.040260 63.503628,89.211182 65.641716,88.612610 
	C66.568512,88.353157 67.628273,88.568665 69.110809,88.568535 
z"/>
<path fill="#2A2A2A" opacity="1.000000" stroke="none" 
	d="
M88.000000,103.982384 
	C106.476135,103.982353 124.452271,103.981659 142.428406,103.983833 
	C143.592728,103.983978 144.870316,103.712883 145.887619,104.105644 
	C146.797668,104.457008 147.936676,105.506218 148.009537,106.332596 
	C148.069336,107.010994 146.835464,108.134041 145.949051,108.478401 
	C144.927673,108.875198 143.658157,108.663765 142.496368,108.664185 
	C116.697289,108.673401 90.898201,108.675400 65.099121,108.678665 
	C64.433342,108.678749 63.665333,108.892860 63.122002,108.634674 
	C61.788033,108.000755 60.557575,107.149033 59.285477,106.384926 
	C60.534496,105.584274 61.756195,104.147179 63.037224,104.092194 
	C68.852112,103.842567 74.683731,103.982559 80.509331,103.982399 
	C82.839554,103.982338 85.169777,103.982384 88.000000,103.982384 
z"/>
<path fill="#0B0B0B" opacity="1.000000" stroke="none" 
	d="
M123.999985,61.112339 
	C103.694130,61.111916 83.888153,61.142342 64.082657,61.057755 
	C62.304131,61.050156 60.528786,60.298481 58.751965,59.892365 
	C58.820492,59.277447 58.889019,58.662529 58.957546,58.047607 
	C60.825718,57.798885 62.693623,57.335609 64.562096,57.333313 
	C97.516289,57.292755 130.470551,57.308434 163.424789,57.311794 
	C164.256882,57.311882 165.193039,57.067966 165.895386,57.369461 
	C166.824295,57.768219 167.570160,58.593380 168.394699,59.235275 
	C167.577209,59.860165 166.808868,60.926727 165.932709,61.024200 
	C163.630936,61.280266 161.282211,61.116352 158.952194,61.116207 
	C147.468124,61.115494 135.984055,61.113625 123.999985,61.112339 
z"/>
<path fill="#292929" opacity="1.000000" stroke="none" 
	d="
M75.007812,73.030411 
	C84.632515,73.030136 93.760597,72.933578 102.882751,73.122833 
	C104.431969,73.154976 105.955727,74.414246 107.491241,75.106590 
	C107.315186,75.658165 107.139137,76.209732 106.963081,76.761307 
	C105.907784,76.878059 104.852661,77.094635 103.797173,77.096420 
	C90.356972,77.119148 76.916199,77.163857 63.477268,77.030884 
	C62.101719,77.017273 60.737171,75.892258 59.367516,75.282974 
	C60.764309,74.531815 62.116032,73.257500 63.566769,73.132507 
	C67.190285,72.820343 70.858765,73.030106 75.007812,73.030411 
z"/>
<path fill="#292929" opacity="1.000000" stroke="none" 
	d="
M144.001892,73.027031 
	C151.328293,73.026962 158.157516,72.939308 164.980316,73.109535 
	C166.174515,73.139328 167.341675,74.252708 168.521332,74.865646 
	C167.308884,75.613380 166.105286,76.993439 164.882599,77.010590 
	C153.228989,77.174080 141.572006,77.076042 129.916336,77.127861 
	C127.138954,77.140205 125.708107,76.401039 127.146797,73.027031 
	C132.546799,73.027031 138.024658,73.027031 144.001892,73.027031 
z"/>
<path fill="#060606" opacity="1.000000" stroke="none" 
	d="
M117.124649,73.148758 
	C119.124832,73.769905 120.585617,74.390831 122.046402,75.011765 
	C120.619171,75.686195 119.232635,76.809486 117.756393,76.943321 
	C114.500053,77.238548 111.198502,77.035049 107.116493,77.035049 
	C109.142548,70.992638 113.630104,74.075668 117.124649,73.148758 
z"/>
<path fill="#060606" opacity="1.000000" stroke="none" 
	d="
M442.687500,128.040985 
	C442.892059,128.393051 442.705475,128.636932 442.213928,128.905869 
	C442.128540,128.667419 442.257690,128.334717 442.687500,128.040985 
z"/>
<path fill="#060606" opacity="1.000000" stroke="none" 
	d="
M229.742310,128.013840 
	C229.730774,128.201874 229.475006,128.316818 229.123016,128.283600 
	C229.183884,128.070557 229.340973,128.005661 229.742310,128.013840 
z"/>
<path fill="#060606" opacity="1.000000" stroke="none" 
	d="
M441.960358,196.296234 
	C442.306946,196.078644 442.564117,196.240646 442.875061,196.690796 
	C442.628479,196.794922 442.275848,196.693878 441.960358,196.296234 
z"/>
<path fill="#FAFAFA" opacity="1.000000" stroke="none" 
	d="
M142.866074,179.108124 
	C149.048080,172.804169 154.958801,166.761200 160.869522,160.718246 
	C161.301941,160.862488 161.734344,161.006729 162.166763,161.150986 
	C162.166763,163.177551 162.166534,165.204132 162.166794,167.230698 
	C162.168076,177.048279 162.304916,186.869232 162.061020,196.680710 
	C162.009857,198.739120 161.082565,201.286469 159.660233,202.711395 
	C153.593155,208.789551 147.188950,214.531204 140.404236,220.865753 
	C140.122421,219.312729 139.780991,218.296051 139.777451,217.278168 
	C139.741058,206.794662 139.602249,196.306656 139.890747,185.830887 
	C139.950699,183.653793 141.650665,181.521881 142.866074,179.108124 
z"/>
<path fill="#FAFAFA" opacity="1.000000" stroke="none" 
	d="
M166.131607,242.071350 
	C166.132050,238.794891 166.132050,236.007095 166.132050,232.329178 
	C167.657547,233.487320 168.683365,234.105606 169.513535,234.922699 
	C174.483917,239.814682 179.205505,244.982849 184.420471,249.594864 
	C187.968262,252.732437 188.755630,256.093384 188.149673,260.584686 
	C186.675186,271.513519 176.900879,280.875854 166.131165,280.839539 
	C166.131165,268.082886 166.131165,255.321457 166.131607,242.071350 
z"/>
<path fill="#F7F7F7" opacity="1.000000" stroke="none" 
	d="
M175.161560,168.835739 
	C178.236725,171.909088 181.058151,174.735214 183.886551,177.554321 
	C190.198395,183.845367 190.386520,187.687012 184.577942,194.486176 
	C191.349335,199.039124 187.373489,205.743103 188.531113,211.477554 
	C188.057587,211.801682 187.584045,212.125793 187.110519,212.449921 
	C180.483154,205.569000 173.825638,198.716507 167.272583,191.765533 
	C166.575623,191.026260 166.179504,189.713394 166.169708,188.661728 
	C166.085052,179.566467 166.120972,170.470062 166.120972,160.011215 
	C169.617706,163.422043 172.264359,166.003677 175.161560,168.835739 
z"/>
<path fill="#F7F7F7" opacity="1.000000" stroke="none" 
	d="
M188.450562,220.422852 
	C188.445511,229.439011 188.445511,237.999847 188.445511,246.560669 
	C188.005753,246.834290 187.565994,247.107910 187.126236,247.381531 
	C180.512558,240.519623 173.879929,233.675720 167.316238,226.766312 
	C166.699707,226.117325 166.192947,225.058426 166.184647,224.184631 
	C166.101776,215.467087 166.134338,206.748459 166.134338,198.030136 
	C166.864105,197.472351 167.593887,196.914566 168.323654,196.356781 
	C169.264282,198.083710 169.869736,200.147461 171.205841,201.476959 
	C175.996536,206.243912 181.109573,210.686157 185.925430,215.429169 
	C187.109848,216.595688 187.630051,218.436615 188.450562,220.422852 
z"/>
<path fill="#F9F9F9" opacity="1.000000" stroke="none" 
	d="
M145.155777,222.243134 
	C150.680420,217.062164 155.952682,212.141968 162.145950,206.362289 
	C162.145950,216.042145 162.159241,224.447327 162.118607,232.852249 
	C162.115631,233.468994 161.895370,234.250122 161.485809,234.674835 
	C154.732117,241.677704 147.931793,248.635590 140.375854,255.185394 
	C141.061966,247.109604 136.973404,238.867126 142.977966,231.419037 
	C142.074371,230.269760 141.082733,229.008469 139.371231,226.831573 
	C141.237732,225.371475 143.070572,223.937698 145.155777,222.243134 
z"/>
<path fill="#F8F8F8" opacity="1.000000" stroke="none" 
	d="
M154.447723,247.433350 
	C156.657074,244.945770 158.615570,242.708633 160.574081,240.471497 
	C160.947632,240.677887 161.321182,240.884293 161.694733,241.090683 
	C161.694733,254.327164 161.694733,267.563629 161.694733,280.804016 
	C152.497604,281.120148 141.906647,272.486694 140.805298,263.511230 
	C140.645447,262.208496 141.646072,260.439453 142.636337,259.377136 
	C146.372070,255.369537 150.325165,251.564590 154.447723,247.433350 
z"/>
<path fill="#F8F8F8" opacity="1.000000" stroke="none" 
	d="
M146.215561,151.238434 
	C151.335052,146.162842 156.201935,141.338684 162.156433,135.436447 
	C162.156433,142.242432 162.209900,147.466949 162.104523,152.688232 
	C162.086685,153.572876 161.592941,154.644089 160.968414,155.290070 
	C154.426880,162.056137 147.813889,168.753098 140.519333,175.101913 
	C140.492767,166.671738 136.551300,157.576660 146.215561,151.238434 
z"/>
<path fill="#F5F5F5" opacity="1.000000" stroke="none" 
	d="
M169.966522,157.916779 
	C166.712570,155.558105 165.727798,152.749466 166.020828,149.088394 
	C166.344391,145.045624 166.094696,140.956970 167.266449,136.315765 
	C174.086548,143.201920 181.094330,149.919128 187.570969,157.114471 
	C188.891937,158.582016 188.345337,161.841919 188.430786,164.283585 
	C188.552170,167.752609 188.461594,171.229065 188.461594,176.152603 
	C181.815842,169.600433 176.021652,163.887833 169.966522,157.916779 
z"/>
<path fill="#FAFAFA" opacity="1.000000" stroke="none" 
	d="
M250.073837,165.929108 
	C254.555435,165.998779 258.571045,165.822037 262.534180,166.198044 
	C268.201050,166.735718 271.322083,170.644531 271.175507,176.422821 
	C271.037964,181.847412 267.773163,185.094223 261.827209,185.265335 
	C255.712402,185.441315 249.588608,185.304413 243.203217,185.304413 
	C243.203217,178.787292 243.203217,172.718140 243.203217,165.929596 
	C245.396027,165.929596 247.490219,165.929596 250.073837,165.929108 
z"/>
<path fill="#F7F7F7" opacity="1.000000" stroke="none" 
	d="
M242.921280,143.213898 
	C243.825119,141.538254 244.687958,139.339005 245.637466,139.300888 
	C250.775482,139.094788 255.954361,139.196777 261.081268,139.635483 
	C265.667389,140.027908 268.308777,142.705643 268.315247,147.548386 
	C268.321594,152.295792 265.875153,155.350235 261.296234,155.691925 
	C255.388123,156.132797 249.422226,155.799332 242.920273,155.799332 
	C242.920273,151.580032 242.920273,147.633911 242.921280,143.213898 
z"/>
<path fill="#F8F8F8" opacity="1.000000" stroke="none" 
	d="
M465.071075,139.128662 
	C469.365631,139.288086 473.215790,139.179871 476.987640,139.672134 
	C482.106842,140.340256 484.130890,143.325638 484.111542,149.285599 
	C484.092438,155.166092 481.983978,158.475311 476.915710,158.819916 
	C470.324432,159.268051 463.679657,158.929443 456.677734,158.929443 
	C456.677734,152.549088 456.677734,146.180161 456.677734,139.128586 
	C459.388519,139.128586 461.990173,139.128586 465.071075,139.128662 
z"/>
<path fill="#F9F9F9" opacity="1.000000" stroke="none" 
	d="
M415.893555,171.819916 
	C414.692383,180.874084 411.120026,184.793533 404.958649,185.377808 
	C392.803772,186.530441 389.652771,170.657730 394.367859,161.368927 
	C396.265411,157.630783 399.247009,155.534912 403.463531,155.497086 
	C407.737488,155.458725 411.606750,156.925003 413.366760,160.916824 
	C414.793854,164.153625 415.101440,167.883987 415.893555,171.819916 
z"/>
<path fill="#F5F5F5" opacity="1.000000" stroke="none" 
	d="
M643.040222,166.990799 
	C639.286072,166.991470 636.016235,166.991470 632.812012,166.991470 
	C632.114014,159.448166 638.731323,155.335800 644.114197,155.446854 
	C650.762573,155.584030 654.378357,159.264755 654.851990,166.990128 
	C651.060547,166.990128 647.292542,166.990128 643.040222,166.990799 
z"/>
<path fill="#FAFAFA" opacity="1.000000" stroke="none" 
	d="
M346.533142,155.585236 
	C352.534821,156.597977 355.941925,160.147934 356.709747,165.519058 
	C357.332367,169.874268 357.416199,174.510452 356.623444,178.816635 
	C355.412415,185.394943 350.717010,188.461533 343.936432,188.246872 
	C338.566711,188.076874 334.172394,184.352280 333.233704,178.286697 
	C332.634003,174.411453 332.551758,170.297318 333.146179,166.429947 
	C334.301056,158.916702 338.330170,155.835052 346.533142,155.585236 
z"/>
<path fill="#F9F9F9" opacity="1.000000" stroke="none" 
	d="
M523.015747,177.373627 
	C523.250183,172.507202 523.009338,167.941742 524.007568,163.665543 
	C525.251465,158.336838 529.878479,155.390747 535.121033,155.435867 
	C540.352234,155.480896 545.055054,158.504333 546.289795,163.699951 
	C547.266541,167.810104 547.688599,172.269943 547.238281,176.454071 
	C546.413452,184.117828 542.181824,187.929413 535.479370,188.247177 
	C528.935059,188.557449 525.363892,185.546875 523.015747,177.373627 
z"/>
</svg>